<svg xmlns="http://www.w3.org/2000/svg" xmlns:xlink="http://www.w3.org/1999/xlink" width="16" height="16" viewBox="0 0 16 16"><defs><style>.a,.c{fill:#1b2331;}.a{stroke:#707070;}.b{clip-path:url(#a);}</style><clipPath id="a"><rect class="a" width="16" height="16" transform="translate(20 473)"/></clipPath></defs><g class="b" transform="translate(-20 -473)"><g transform="translate(20 473)"><path class="c" d="M15,16H12.333a1,1,0,0,1-1-1V12.333a1,1,0,0,1,1-1H15a1,1,0,0,1,1,1V15A1,1,0,0,1,15,16Zm-2.667-4a.333.333,0,0,0-.333.333V15a.333.333,0,0,0,.333.333H15A.333.333,0,0,0,15.333,15V12.333A.333.333,0,0,0,15,12Z"/><path class="c" d="M9,6H1A1,1,0,0,1,0,5V1A1,1,0,0,1,1,0H9a1,1,0,0,1,1,1V5A1,1,0,0,1,9,6ZM1,.667A.333.333,0,0,0,.667,1V5A.333.333,0,0,0,1,5.333H9A.333.333,0,0,0,9.333,5V1A.333.333,0,0,0,9,.667Z"/><path class="c" d="M15.667,8H.333a.333.333,0,1,1,0-.667H15.667a.333.333,0,0,1,0,.667Z"/><path class="c" d="M15.667,10H.333a.333.333,0,1,1,0-.667H15.667a.333.333,0,0,1,0,.667Z"/><path class="c" d="M9.667,12H.333a.333.333,0,1,1,0-.667H9.667a.333.333,0,1,1,0,.667Z"/><path class="c" d="M9.667,14H.333a.333.333,0,1,1,0-.667H9.667a.333.333,0,1,1,0,.667Z"/><path class="c" d="M9.667,16H.333a.333.333,0,1,1,0-.667H9.667a.333.333,0,1,1,0,.667Z"/><path class="c" d="M15.667,1.333h-4a.333.333,0,0,1,0-.667h4a.333.333,0,0,1,0,.667Z"/><path class="c" d="M15.667,3.333h-4a.333.333,0,0,1,0-.667h4a.333.333,0,0,1,0,.667Z"/><path class="c" d="M15.667,5.333h-4a.333.333,0,0,1,0-.667h4a.333.333,0,0,1,0,.667Z"/></g></g></svg>