<svg xmlns="http://www.w3.org/2000/svg" xmlns:xlink="http://www.w3.org/1999/xlink" width="16" height="16" viewBox="0 0 16 16"><defs><style>.a,.c{fill:#1b2331;}.a{stroke:#707070;}.b{clip-path:url(#a);}</style><clipPath id="a"><rect class="a" width="16" height="16" transform="translate(20 194)"/></clipPath></defs><g class="b" transform="translate(-20 -194)"><g transform="translate(20 194)"><path class="c" d="M5.333,11.467H4.8A.267.267,0,0,0,4.8,12h.533a.267.267,0,1,0,0-.533Z"/><path class="c" d="M12.8,11.467H6.4A.267.267,0,1,0,6.4,12h6.4a.267.267,0,0,0,0-.533Z"/><path class="c" d="M5.333,9.867H4.8a.267.267,0,0,0,0,.533h.533a.267.267,0,1,0,0-.533Z"/><path class="c" d="M12.8,9.867H6.4a.267.267,0,1,0,0,.533h6.4a.267.267,0,0,0,0-.533Z"/><path class="c" d="M5.333,8.267H4.8a.267.267,0,0,0,0,.533h.533a.267.267,0,1,0,0-.533Z"/><path class="c" d="M12.8,8.267H6.4a.267.267,0,1,0,0,.533h6.4a.267.267,0,0,0,0-.533Z"/><path class="c" d="M5.333,6.667H4.8a.267.267,0,0,0,0,.533h.533a.267.267,0,1,0,0-.533Z"/><path class="c" d="M12.8,6.667H6.4a.267.267,0,1,0,0,.533h6.4a.267.267,0,0,0,0-.533Z"/><path class="c" d="M5.333,5.067H4.8a.267.267,0,0,0,0,.533h.533a.267.267,0,1,0,0-.533Z"/><path class="c" d="M12.8,5.067H6.4a.267.267,0,1,0,0,.533h6.4a.267.267,0,0,0,0-.533Z"/><path class="c" d="M14.663,3.983a.252.252,0,0,0-.014-.069c0-.009-.005-.017-.009-.025a.267.267,0,0,0-.053-.078L10.854.078a.267.267,0,0,0-.078-.053L10.751.016A.266.266,0,0,0,10.682,0s-.01,0-.015,0H3.2a.267.267,0,0,0-.267.267v.8H1.6a.267.267,0,0,0-.267.267v14.4A.267.267,0,0,0,1.6,16H12.8a.267.267,0,0,0,.267-.267V14.4H14.4a.267.267,0,0,0,.267-.267V4C14.667,3.994,14.664,3.989,14.663,3.983ZM10.933.91l2.823,2.823H10.933Zm1.6,14.556H1.867V1.6H2.933V14.133A.267.267,0,0,0,3.2,14.4h9.333Zm1.6-1.6H3.467V.533H10.4V4a.267.267,0,0,0,.267.267h3.467Z"/><path class="c" d="M6.4,2.4H4.8a.267.267,0,0,0-.267.267v1.6a.267.267,0,0,0,.267.267H6.4a.267.267,0,0,0,.267-.267v-1.6A.267.267,0,0,0,6.4,2.4ZM6.133,4H5.067V2.933H6.133Z"/></g></g></svg>