<svg xmlns="http://www.w3.org/2000/svg" width="26" height="26" viewBox="0 0 26 26"><defs><style>.a{fill:#1b2331;}</style></defs><g transform="translate(0)"><path class="a" d="M412,126.508a.508.508,0,1,0,.508-.508A.508.508,0,0,0,412,126.508Zm0,0" transform="translate(-391.079 -119.602)"/><path class="a" d="M433.651,165.1a9.67,9.67,0,0,1-.194,1.93.508.508,0,0,0,.4.6.5.5,0,0,0,.1.011.508.508,0,0,0,.5-.406,10.686,10.686,0,0,0,.214-2.133,10.548,10.548,0,0,0-1.031-4.573.508.508,0,1,0-.917.437,9.543,9.543,0,0,1,.932,4.136Zm0,0" transform="translate(-410.699 -152.1)"/><path class="a" d="M201.586,213.109h-.508v-6.6a.508.508,0,0,0-.508-.508h-4.062a.508.508,0,0,0-.508.508v2.031a.508.508,0,0,0,.508.508h.508v4.063h-.508a.508.508,0,0,0-.508.508v2.031a.508.508,0,0,0,.508.508h5.078a.508.508,0,0,0,.508-.508v-2.031A.508.508,0,0,0,201.586,213.109Zm-.508,2.031h-4.062v-1.016h.508a.508.508,0,0,0,.508-.508v-5.078a.508.508,0,0,0-.508-.508h-.508v-1.016h3.047v6.6a.508.508,0,0,0,.508.508h.508Zm0,0" transform="translate(-186.047 -195.539)"/><path class="a" d="M218.031,110.063A2.031,2.031,0,1,0,216,108.031,2.034,2.034,0,0,0,218.031,110.063Zm0-3.047a1.016,1.016,0,1,1-1.016,1.016A1.017,1.017,0,0,1,218.031,107.016Zm0,0" transform="translate(-205.032 -100.617)"/><path class="a" d="M13,0A13.221,13.221,0,0,0,0,13a13.848,13.848,0,0,0,1.845,6.875L.026,25.332a.508.508,0,0,0,.643.642l5.457-1.819A13.844,13.844,0,0,0,13,26,13.22,13.22,0,0,0,26,13,13.22,13.22,0,0,0,13,0Zm0,24.984a12.7,12.7,0,0,1-6.538-1.815.508.508,0,0,0-.432-.053L1.31,24.689l1.573-4.718a.507.507,0,0,0-.053-.432A12.7,12.7,0,0,1,1.015,13,12.145,12.145,0,0,1,13,1.016,12.145,12.145,0,0,1,24.984,13,12.145,12.145,0,0,1,13,24.984Zm0,0"/></g></svg>