<svg xmlns="http://www.w3.org/2000/svg" xmlns:xlink="http://www.w3.org/1999/xlink" width="16" height="16" viewBox="0 0 16 16"><defs><style>.a,.c{fill:#1b2331;}.a{stroke:#707070;}.b{clip-path:url(#a);}</style><clipPath id="a"><rect class="a" width="16" height="16" transform="translate(20 659)"/></clipPath></defs><g class="b" transform="translate(-20 -659)"><g transform="translate(19.467 658.467)"><path class="c" d="M6.4,1.6h4.267v.533H6.4Z"/><path class="c" d="M6.4,2.667h4.267V3.2H6.4Z"/><path class="c" d="M6.4,3.733h4.267v.533H6.4Z"/><path class="c" d="M7.2,7.2h3.733v.533H7.2Z"/><path class="c" d="M6.667,8.267H10.4V8.8H6.667Z"/><path class="c" d="M6.133,9.333H9.867v.533H6.133Z"/><path class="c" d="M6.4,12.8h4.267v.533H6.4Z"/><path class="c" d="M6.4,13.867h4.267V14.4H6.4Z"/><path class="c" d="M6.4,14.933h4.267v.533H6.4Z"/><path class="c" d="M3.6,14.4H5.333v1.867a.267.267,0,0,0,.267.267h5.867a.267.267,0,0,0,.267-.267V14.4h.552a2.133,2.133,0,1,0,0-.533h-.552V12a.267.267,0,0,0-.267-.267H5.6A.267.267,0,0,0,5.333,12v1.867H3.6A2.533,2.533,0,1,1,3.6,8.8H5.215L4.55,10.573a.267.267,0,0,0,.25.36h5.867a.267.267,0,0,0,.25-.173l.735-1.96h1.815a3.067,3.067,0,1,0,0-6.133H11.733V.8a.267.267,0,0,0-.267-.267H5.6A.267.267,0,0,0,5.333.8V5.067a.267.267,0,0,0,.267.267h5.867a.267.267,0,0,0,.267-.267V3.2h1.733a2.533,2.533,0,0,1,0,5.067H11.852l.665-1.773a.267.267,0,0,0-.25-.36H6.4a.267.267,0,0,0-.25.173l-.735,1.96H3.6a3.067,3.067,0,0,0,0,6.133Zm10.8-1.867a1.6,1.6,0,1,1-1.6,1.6A1.6,1.6,0,0,1,14.4,12.533Zm-8.533-.267H11.2V16H5.867ZM11.2,4.8H5.867V1.067H11.2ZM6.585,6.667h5.3l-1.4,3.733h-5.3Z"/><path class="c" d="M14.133,14.933a.266.266,0,0,0,.189-.078l1.067-1.067-.377-.377-.878.878-.345-.345-.377.377.533.533a.266.266,0,0,0,.189.078Z"/></g></g></svg>