<svg xmlns="http://www.w3.org/2000/svg" xmlns:xlink="http://www.w3.org/1999/xlink" width="16" height="16" viewBox="0 0 16 16"><defs><style>.a,.c{fill:#1b2331;}.a{stroke:#707070;}.b{clip-path:url(#a);}</style><clipPath id="a"><rect class="a" width="16" height="16" transform="translate(20 194)"/></clipPath></defs><g class="b" transform="translate(-20 -194)"><g transform="translate(19.544 193.544)"><path class="c" d="M.686,13.751a.229.229,0,0,1-.229-.229v-7.4A1.978,1.978,0,0,1,2.433,4.147h.648a.229.229,0,0,1,.229.229v7.4A.229.229,0,0,1,3.081,12H2.433A1.52,1.52,0,0,0,.914,13.522a.229.229,0,0,1-.229.229ZM2.433,4.6A1.52,1.52,0,0,0,.914,6.123V12.26a1.972,1.972,0,0,1,1.519-.713h.42V4.6Z"/><path class="c" d="M14.48,15.5H2.432a1.976,1.976,0,0,1,0-3.951h.421V5.462a.229.229,0,0,1,.229-.229H5.823a.229.229,0,0,1,0,.457H3.309v6.084A.229.229,0,0,1,3.081,12H2.432a1.519,1.519,0,1,0,0,3.037H14.48a1.519,1.519,0,1,0,0-3.037h-.649a.229.229,0,0,1-.229-.229V5.691h-4a.229.229,0,0,1,0-.457h4.23a.229.229,0,0,1,.229.229v6.084h.421a1.976,1.976,0,0,1,0,3.951Z"/><path class="c" d="M16.226,13.751A.229.229,0,0,1,16,13.522,1.524,1.524,0,0,0,14.479,12h-.648a.229.229,0,0,1-.229-.229v-7.4a.229.229,0,0,1,.229-.229h.648a1.978,1.978,0,0,1,1.976,1.976v7.4A.229.229,0,0,1,16.226,13.751Zm-2.167-2.2h.42A1.98,1.98,0,0,1,16,12.262V6.123A1.52,1.52,0,0,0,14.479,4.6h-.42Z"/><path class="c" d="M13.964,15.5a.229.229,0,0,1-.13-.041l-3.079-2.133a.229.229,0,0,1-.081-.1L9.539,10.467,3.027,8.887a.229.229,0,1,1,.108-.444L9.76,10.05a.229.229,0,0,1,.157.135l1.152,2.8,3.023,2.1a.229.229,0,0,1-.13.416Z"/><path class="c" d="M6.475,15.5a.229.229,0,0,1-.213-.144l-1.269-3.2a.229.229,0,0,1,.02-.208l2.507-3.89a.229.229,0,0,1,.137-.1l6.118-1.51a.229.229,0,0,1,.11.444L7.856,8.382,5.462,12.1l1.225,3.088a.229.229,0,0,1-.212.313Z"/><path class="c" d="M13.831,11.522a.227.227,0,0,1-.055-.007L9.652,10.493a.229.229,0,1,1,.11-.444l4.124,1.021a.229.229,0,0,1-.055.45Z"/><path class="c" d="M7.713,8.41a.229.229,0,0,1-.175-.082c-.1-.119-2.436-2.92-2.436-4.3a2.611,2.611,0,1,1,5.223,0c0,1.383-2.337,4.185-2.436,4.3a.229.229,0,0,1-.175.082Zm0-6.539A2.157,2.157,0,0,0,5.559,4.025c0,.929,1.422,2.887,2.154,3.8.731-.91,2.154-2.867,2.154-3.8A2.157,2.157,0,0,0,7.713,1.871Z"/><path class="c" d="M7.713,5.648A1.623,1.623,0,1,1,9.336,4.026,1.623,1.623,0,0,1,7.713,5.648Zm0-2.788A1.166,1.166,0,1,0,8.879,4.026,1.166,1.166,0,0,0,7.713,2.86Z"/></g></g></svg>