<svg xmlns="http://www.w3.org/2000/svg" xmlns:xlink="http://www.w3.org/1999/xlink" width="16" height="16" viewBox="0 0 16 16"><defs><style>.a,.c{fill:#1b2331;}.a{stroke:#707070;}.b{clip-path:url(#a);}</style><clipPath id="a"><rect class="a" width="16" height="16" transform="translate(20 659)"/></clipPath></defs><g class="b" transform="translate(-20 -659)"><g transform="translate(20 659)"><path class="c" d="M8.267,1.155A.284.284,0,0,0,8,.978H8a.284.284,0,0,0-.263.177l0,.005L6.9,3.352a.234.234,0,1,0,.438.167l.15-.395H8.509l.149.394A.234.234,0,1,0,9.1,3.352L8.27,1.161l0-.006Zm-.6,1.5L8,1.782l.329.873Z"/><path class="c" d="M7.322,6.655a.234.234,0,0,0-.234.234V9.111a.234.234,0,0,0,.234.234h0l.757,0a.832.832,0,0,0,.49-1.5.745.745,0,0,0-.6-1.184Zm.758,2.22-.524,0V8.147H8.08a.364.364,0,1,1,0,.728ZM8.244,7.4a.277.277,0,0,1-.277.277H7.556V7.123h.411A.277.277,0,0,1,8.244,7.4Z"/><path class="c" d="M8.206,12.8a.872.872,0,0,1,.49.15.234.234,0,1,0,.262-.388,1.346,1.346,0,1,0-.752,2.461,1.109,1.109,0,0,0,.88-.4.234.234,0,1,0-.359-.3.641.641,0,0,1-.52.23.877.877,0,0,1,0-1.753Z"/><path class="c" d="M15.1,2.989a3.052,3.052,0,0,0-2.173-.9H11.139V1.238A1.239,1.239,0,0,0,9.9,0H9.346a.234.234,0,0,0,0,.469H9.9a.77.77,0,0,1,.769.769V3.41a.77.77,0,0,1-.769.769H6.1A.77.77,0,0,1,5.33,3.41V1.238A.77.77,0,0,1,6.1.469H8.408a.234.234,0,0,0,0-.469H6.1A1.239,1.239,0,0,0,4.862,1.238V3.41A1.239,1.239,0,0,0,6.1,4.648H7.766V5.676H6.1A1.239,1.239,0,0,0,4.862,6.914v.852H3.072a3.072,3.072,0,0,0,0,6.145h.777l-.4.4a.234.234,0,0,0,.331.331l.8-.8a.234.234,0,0,0,0-.331l-.8-.8a.234.234,0,0,0-.331.331l.4.4H3.072a2.6,2.6,0,1,1,0-5.207H4.861v.852A1.239,1.239,0,0,0,6.1,10.324H7.766v1.029H6.1a1.234,1.234,0,0,0-1.1.675.234.234,0,0,0,.417.213.767.767,0,0,1,.685-.42H9.9a.77.77,0,0,1,.769.769v2.172a.77.77,0,0,1-.769.769H6.1a.77.77,0,0,1-.769-.769v-1.7a.234.234,0,1,0-.469,0v1.7A1.239,1.239,0,0,0,6.1,16H9.9a1.239,1.239,0,0,0,1.238-1.238V12.59A1.239,1.239,0,0,0,9.9,11.353H8.234V10.324H9.9a1.239,1.239,0,0,0,1.238-1.238V6.914A1.239,1.239,0,0,0,9.9,5.676H8.234V4.648H9.9A1.239,1.239,0,0,0,11.139,3.41V2.558h1.789a2.6,2.6,0,1,1,0,5.207h-.777l.4-.4a.234.234,0,1,0-.331-.331l-.8.8a.234.234,0,0,0,0,.331l.8.8a.234.234,0,0,0,.331-.331l-.4-.4h.777A3.072,3.072,0,0,0,15.1,2.989ZM10.67,6.914V9.086a.77.77,0,0,1-.769.769H6.1a.77.77,0,0,1-.769-.769V6.914A.77.77,0,0,1,6.1,6.145H9.9a.77.77,0,0,1,.769.769Z"/></g></g></svg>