<svg xmlns="http://www.w3.org/2000/svg" xmlns:xlink="http://www.w3.org/1999/xlink" width="16" height="16" viewBox="0 0 16 16"><defs><style>.a,.c{fill:#1b2331;}.a{stroke:#707070;}.b{clip-path:url(#a);}</style><clipPath id="a"><rect class="a" width="16" height="16" transform="translate(20 194)"/></clipPath></defs><g class="b" transform="translate(-20 -194)"><g transform="translate(20 194)"><path class="c" d="M4.1,6.776a.313.313,0,1,0-.221-.092A.315.315,0,0,0,4.1,6.776Zm0,0"/><path class="c" d="M8.577,6.362a.313.313,0,1,0,.091.221A.315.315,0,0,0,8.577,6.362Zm0,0"/><path class="c" d="M9.45,5.8a.313.313,0,1,0-.221-.092A.315.315,0,0,0,9.45,5.8Zm0,0"/><path class="c" d="M15.063,7.687h-.872l1.535-1.535a.938.938,0,0,0,0-1.326L14.333,3.434a.313.313,0,0,0-.442,0,.937.937,0,0,1-1.326-1.326.312.312,0,0,0,0-.442L11.173.275a.937.937,0,0,0-1.326,0L4.686,5.436a.313.313,0,0,0,.442.442L10.29.717a.312.312,0,0,1,.442,0L11.925,1.91A1.563,1.563,0,0,0,14.09,4.075l1.193,1.193a.313.313,0,0,1,0,.442L13.307,7.687h-1.37l1.027-1.027a.313.313,0,0,0,0-.442L9.781,3.037a.313.313,0,0,0-.442,0L4.689,7.687H.938A.939.939,0,0,0,0,8.625v1.969a.313.313,0,0,0,.312.313.938.938,0,0,1,0,1.875A.312.312,0,0,0,0,13.094v1.969A.939.939,0,0,0,.938,16H15.063A.939.939,0,0,0,16,15.062V13.094a.312.312,0,0,0-.312-.312.937.937,0,0,1,0-1.875A.313.313,0,0,0,16,10.594V8.625a.939.939,0,0,0-.937-.937ZM9.56,3.7,12.3,6.44,11.053,7.687H9.815l.916-.916a.312.312,0,0,0-.442-.442L8.931,7.687H5.573Zm5.815,6.613a1.563,1.563,0,0,0,0,3.062v1.688a.313.313,0,0,1-.312.313H.938a.313.313,0,0,1-.312-.312V13.375a1.563,1.563,0,0,0,0-3.062V8.625a.313.313,0,0,1,.313-.312H15.063a.313.313,0,0,1,.313.313Zm0,0"/><path class="c" d="M6.674,11.315a.312.312,0,1,0-.221.092A.315.315,0,0,0,6.674,11.315Zm0,0"/><path class="c" d="M9.768,11.315a.312.312,0,1,0-.221.092A.315.315,0,0,0,9.768,11.315Zm0,0"/><path class="c" d="M8.221,11.315A.312.312,0,1,0,8,11.406.315.315,0,0,0,8.221,11.315Zm0,0"/><path class="c" d="M4.906,11.406a.313.313,0,1,0-.221-.092A.315.315,0,0,0,4.906,11.406Zm0,0"/><path class="c" d="M11.315,11.315a.312.312,0,1,0-.221.092A.315.315,0,0,0,11.315,11.315Zm0,0"/><path class="c" d="M4.906,12.906h6.188a.313.313,0,0,0,0-.625H4.906a.313.313,0,0,0,0,.625Zm0,0"/><path class="c" d="M6.041,13.781a.313.313,0,1,0,.221.092A.315.315,0,0,0,6.041,13.781Zm0,0"/><path class="c" d="M12.75,9.281H3.25a.312.312,0,0,0-.312.313v4.5a.313.313,0,0,0,.313.313h1.3a.313.313,0,0,0,0-.625H3.563V9.906h8.875v3.875H7.364a.313.313,0,0,0,0,.625H12.75a.313.313,0,0,0,.313-.312v-4.5A.312.312,0,0,0,12.75,9.281Zm0,0"/></g></g></svg>