<svg xmlns="http://www.w3.org/2000/svg" xmlns:xlink="http://www.w3.org/1999/xlink" width="16" height="16" viewBox="0 0 16 16"><defs><style>.a,.c{fill:#1b2331;}.a{stroke:#707070;}.b{clip-path:url(#a);}</style><clipPath id="a"><rect class="a" width="16" height="16" transform="translate(20 287)"/></clipPath></defs><g class="b" transform="translate(-20 -287)"><g transform="translate(20 287)"><path class="c" d="M13.156,11.687a.312.312,0,0,0-.313.313v3.063a.313.313,0,0,1-.312.313H1.782a.313.313,0,0,1-.313-.313V9.406a.313.313,0,1,0-.625,0v5.656A.939.939,0,0,0,1.782,16H12.531a.939.939,0,0,0,.938-.938V12A.312.312,0,0,0,13.156,11.687Z"/><path class="c" d="M14.383,5.848a2.626,2.626,0,0,0-.914-.595V3.375h0a.312.312,0,0,0-.091-.221L10.315.092A.312.312,0,0,0,10.094,0H1.782A.939.939,0,0,0,.845.938V6.76a.313.313,0,0,0,.625,0V.937A.313.313,0,0,1,1.782.625h8V2.75a.939.939,0,0,0,.938.938h2.125V5.1a2.638,2.638,0,0,0-2.2.751L6.193,10.3a.313.313,0,1,0,.442.442L11.089,6.29a2.017,2.017,0,0,1,2.852,2.852L9.764,13.319a1.258,1.258,0,0,1-1.778-1.778l4.2-4.2a.49.49,0,1,1,.693.693L9.093,11.819a.313.313,0,0,0,.442.442l3.783-3.783A1.115,1.115,0,1,0,11.741,6.9l-4.2,4.2a1.883,1.883,0,0,0,2.662,2.662l4.177-4.177A2.645,2.645,0,0,0,14.383,5.848ZM10.719,3.062a.313.313,0,0,1-.313-.313V1.067l2,2Z"/><path class="c" d="M1.378,7.879A.312.312,0,1,0,1.47,8.1.315.315,0,0,0,1.378,7.879Z"/><path class="c" d="M5.717,11.386l-.006-.019a.313.313,0,0,0-.595.193l.006.019a.313.313,0,0,0,.595-.193Z"/></g></g></svg>