<svg xmlns="http://www.w3.org/2000/svg" xmlns:xlink="http://www.w3.org/1999/xlink" width="16" height="16" viewBox="0 0 16 16"><defs><style>.a,.c{fill:#1b2331;}.a{stroke:#707070;}.b{clip-path:url(#a);}</style><clipPath id="a"><rect class="a" width="16" height="16" transform="translate(20 659)"/></clipPath></defs><g class="b" transform="translate(-20 -659)"><g transform="translate(19.543 658.544)"><path class="c" d="M9.092,13.714H7.822A.229.229,0,0,1,7.6,13.52l-.237-1.508a3.645,3.645,0,0,1-.64-.265l-1.234.9a.229.229,0,0,1-.3-.023l-.9-.9a.229.229,0,0,1-.023-.3l.9-1.234a3.644,3.644,0,0,1-.265-.64L3.394,9.316A.229.229,0,0,1,3.2,9.092V7.822A.229.229,0,0,1,3.393,7.6L4.9,7.358a3.644,3.644,0,0,1,.265-.64l-.9-1.234a.229.229,0,0,1,.023-.3l.9-.9a.229.229,0,0,1,.3-.023l1.234.9a3.645,3.645,0,0,1,.64-.265L7.6,3.394A.229.229,0,0,1,7.822,3.2h1.27a.229.229,0,0,1,.226.193L9.555,4.9a3.645,3.645,0,0,1,.64.265l1.234-.9a.229.229,0,0,1,.3.023l.9.9a.229.229,0,0,1,.023.3l-.9,1.234a3.643,3.643,0,0,1,.265.64L13.52,7.6a.229.229,0,0,1,.193.226v1.27a.229.229,0,0,1-.193.226l-1.508.237a3.644,3.644,0,0,1-.265.64l.9,1.234a.229.229,0,0,1-.023.3l-.9.9a.229.229,0,0,1-.3.023l-1.234-.9a3.645,3.645,0,0,1-.64.265L9.316,13.52A.229.229,0,0,1,9.092,13.714Zm-1.074-.457H8.9l.23-1.461a.229.229,0,0,1,.168-.186,3.177,3.177,0,0,0,.8-.332.229.229,0,0,1,.25.013l1.195.872.622-.621-.873-1.194a.229.229,0,0,1-.013-.25,3.2,3.2,0,0,0,.333-.8.229.229,0,0,1,.186-.168L13.258,8.9v-.88L11.8,7.787a.229.229,0,0,1-.186-.168,3.2,3.2,0,0,0-.332-.8.229.229,0,0,1,.013-.25l.871-1.2-.621-.621-1.2.872a.229.229,0,0,1-.25.013,3.177,3.177,0,0,0-.8-.333.229.229,0,0,1-.168-.186L8.9,3.657H8.017l-.23,1.461a.229.229,0,0,1-.168.186,3.177,3.177,0,0,0-.8.332.229.229,0,0,1-.25-.013l-1.2-.872-.621.621.872,1.2a.229.229,0,0,1,.013.25,3.2,3.2,0,0,0-.333.8.229.229,0,0,1-.186.168l-1.46.23V8.9l1.461.229a.229.229,0,0,1,.186.168,3.2,3.2,0,0,0,.332.8.229.229,0,0,1-.013.25l-.872,1.2.622.621,1.194-.873a.229.229,0,0,1,.25-.013,3.177,3.177,0,0,0,.8.333.229.229,0,0,1,.168.186Z"/><path class="c" d="M8.457,10.511a2.054,2.054,0,1,1,2.054-2.054,2.054,2.054,0,0,1-2.054,2.054Zm0-3.651a1.6,1.6,0,1,0,1.6,1.6,1.6,1.6,0,0,0-1.6-1.6Z"/><path class="c" d="M.6,9.958A8,8,0,0,1,15.593,4.843l-.408.206A7.542,7.542,0,0,0,1.048,9.872Z"/><path class="c" d="M15.542,5.251l-1.8-.692.164-.427,1.325.51.373-1.37.441.12Z"/><path class="c" d="M8.47,16.454A8.007,8.007,0,0,1,1.321,12.07l.408-.206A7.542,7.542,0,0,0,15.866,7.042l.449-.086a8,8,0,0,1-7.845,9.5Z"/><path class="c" d="M1.306,13.641l-.441-.12.506-1.858,1.8.692L3,12.781l-1.325-.51Z"/></g></g></svg>