<svg xmlns="http://www.w3.org/2000/svg" xmlns:xlink="http://www.w3.org/1999/xlink" width="16" height="16" viewBox="0 0 16 16"><defs><style>.a,.c{fill:#1b2331;}.a{stroke:#707070;}.b{clip-path:url(#a);}</style><clipPath id="a"><rect class="a" width="16" height="16" transform="translate(20 380)"/></clipPath></defs><g class="b" transform="translate(-20 -380)"><g transform="translate(20 380)"><path class="c" d="M6.815,14.039H4.121V12.424l.149.149a.234.234,0,0,0,.332-.331l-.549-.549h0l-.01-.009a.234.234,0,0,0-.321.009h0l-.548.549a.234.234,0,1,0,.332.331l.148-.148v1.848a.234.234,0,0,0,.234.234H6.815a.234.234,0,0,0,0-.469Z"/><path class="c" d="M9.1,2.724h2.693V4.339L11.64,4.19a.234.234,0,1,0-.332.331l.549.549h0a.234.234,0,0,0,.323.008l.008-.008.549-.549a.234.234,0,0,0-.332-.331l-.149.149V2.49a.234.234,0,0,0-.234-.234H9.1a.234.234,0,0,0,0,.469Z"/><path class="c" d="M14.864,12.153c-.095-.054-.193-.11-.293-.17l-.8-.481a2.8,2.8,0,0,0,.741-1.29,1.743,1.743,0,0,0,.045-.384V7.937a2.153,2.153,0,0,0-1.613-1.928,2.051,2.051,0,0,0-2.171.339c-.463.076-1.126.437-1.1,1.89,0,.014,0,.025,0,.033V9.828a1.744,1.744,0,0,0,.045.384,2.8,2.8,0,0,0,.741,1.289l-.8.481c-.1.06-.2.116-.293.17-.609.347-1.136.646-1.136,1.549V15.38a.427.427,0,0,0,.11.317.391.391,0,0,0,.292.1h.762a.234.234,0,0,0,0-.469H8.694V13.7c0-.631.319-.812.9-1.142l.176-.1.993.644.01.006c.036.021.067.042.1.062a.514.514,0,0,0,.283.112.347.347,0,0,0,.215-.079l.061.24-.564,1.223a.244.244,0,0,0,.012.247l.243.413H10.43a.234.234,0,0,0,0,.469H15.6a.391.391,0,0,0,.292-.1.427.427,0,0,0,.11-.317V13.7c0-.9-.526-1.2-1.136-1.549Zm-.857.039-.8.515c-.046.027-.084.053-.115.074v0l-.187-.2,0,0-.318-.337c.052-.015.105-.033.161-.054a2.667,2.667,0,0,0,.651-.36ZM10.913,6.8a.234.234,0,0,0,.165-.09,1.571,1.571,0,0,1,1.714-.259,1.726,1.726,0,0,1,1.3,1.485v.816h-.172a1.126,1.126,0,0,1-.771-.427,1.832,1.832,0,0,0-1.32-.634h-.512c-.579,0-.678.479-.736.766-.075.363-.122.456-.381.456h-.057V8.271c0-.01,0-.024,0-.041-.01-.619.117-1.37.775-1.428Zm-.742,3.306a1.275,1.275,0,0,1-.033-.28V9.383h.057c.67,0,.777-.52.841-.83.07-.34.106-.391.277-.391h.512a1.37,1.37,0,0,1,1,.507,1.557,1.557,0,0,0,1.091.554h.172v.607a1.274,1.274,0,0,1-.033.28,2.513,2.513,0,0,1-1.47,1.638,1.185,1.185,0,0,1-.942,0A2.516,2.516,0,0,1,10.171,10.108Zm2.3,2.7-.109.429h-.508l-.109-.427.364-.386Zm-1.346-.025v0c-.031-.021-.069-.047-.115-.074l-.8-.515.609-.366a2.662,2.662,0,0,0,.651.36c.055.021.109.039.161.054Zm1.431,2.548h-.9l-.329-.559.492-1.067H12.4l.491,1.067Zm2.971,0H13.1l.243-.413a.244.244,0,0,0,.012-.247L12.8,13.444l.061-.242a.348.348,0,0,0,.216.08.514.514,0,0,0,.283-.112c.03-.02.061-.042.1-.062l.01-.006.993-.644.176.1c.579.329.9.511.9,1.142Z"/><path class="c" d="M6.64,6.5c-.1-.054-.193-.11-.294-.17l-.8-.481a2.794,2.794,0,0,0,.741-1.29,1.731,1.731,0,0,0,.046-.383V2.286A2.154,2.154,0,0,0,4.716.357,2.049,2.049,0,0,0,2.547.7c-.463.076-1.126.438-1.1,1.89,0,.014,0,.025,0,.033V4.177a1.729,1.729,0,0,0,.046.383A2.794,2.794,0,0,0,2.23,5.85l-.8.481c-.1.061-.2.116-.294.17C.526,6.848,0,7.147,0,8.051V9.729a.427.427,0,0,0,.11.316.392.392,0,0,0,.293.1h.825a.234.234,0,1,0,0-.469H.469V8.051c0-.631.319-.812.9-1.141l.177-.1.994.643.008.005c.035.021.066.042.1.062a.516.516,0,0,0,.285.113.346.346,0,0,0,.214-.079l.061.24L2.639,9.015a.245.245,0,0,0,.012.248l.243.413H2.31a.234.234,0,1,0,0,.469H7.371a.392.392,0,0,0,.293-.1.427.427,0,0,0,.11-.316V8.051c0-.9-.526-1.2-1.135-1.549Zm-.858.038-.8.515c-.045.027-.083.053-.114.074h0l-.51-.54c.052-.016.106-.033.161-.054a2.664,2.664,0,0,0,.65-.359ZM2.688,1.15a.235.235,0,0,0,.165-.09A1.569,1.569,0,0,1,4.565.8a1.728,1.728,0,0,1,1.3,1.486V3.1H5.69a1.128,1.128,0,0,1-.772-.427A1.832,1.832,0,0,0,3.6,2.041H3.088c-.58,0-.678.48-.737.766-.075.363-.122.456-.382.456H1.912V2.619c0-.01,0-.024,0-.04-.01-.619.117-1.37.776-1.429ZM1.946,4.456a1.262,1.262,0,0,1-.034-.279V3.731h.057c.671,0,.777-.52.841-.83.07-.34.106-.391.278-.391H3.6a1.37,1.37,0,0,1,1,.506,1.559,1.559,0,0,0,1.092.554h.172v.608a1.263,1.263,0,0,1-.034.279A2.511,2.511,0,0,1,4.359,6.094a1.319,1.319,0,0,1-.472.1,1.328,1.328,0,0,1-.471-.1A2.511,2.511,0,0,1,1.946,4.456Zm2.3,2.7-.109.429H3.632l-.109-.427.364-.386ZM3.089,6.93h0l-.186.2h0c-.031-.021-.069-.047-.114-.074l-.8-.515L2.6,6.174a2.663,2.663,0,0,0,.65.359c.055.021.109.039.161.054ZM4.335,9.675h-.9l-.329-.56L3.6,8.05h.573l.492,1.065Zm2.971,0H4.878l.24-.409a.242.242,0,0,0,.015-.25L4.57,7.792l.062-.242a.346.346,0,0,0,.216.081.514.514,0,0,0,.284-.113c.03-.021.061-.042.1-.063l.009-.005.994-.643.177.1c.579.329.9.51.9,1.141V9.675Z"/></g></g></svg>