<svg xmlns="http://www.w3.org/2000/svg" xmlns:xlink="http://www.w3.org/1999/xlink" width="16" height="16" viewBox="0 0 16 16"><defs><style>.a,.c{fill:#1b2331;}.a{stroke:#707070;}.b{clip-path:url(#a);}</style><clipPath id="a"><rect class="a" width="16" height="16" transform="translate(20 566)"/></clipPath></defs><g class="b" transform="translate(-20 -566)"><g transform="translate(20 566)"><path class="c" d="M6.1,1.967H5.229a.234.234,0,0,0,0,.469H6.1a.234.234,0,0,0,0-.469Z"/><path class="c" d="M7.4,2.436h3.367a.234.234,0,0,0,0-.469H7.4a.234.234,0,0,0,0,.469Z"/><path class="c" d="M6.1,3.312H5.229a.234.234,0,0,0,0,.469H6.1a.234.234,0,0,0,0-.469Z"/><path class="c" d="M7.4,3.781h3.367a.234.234,0,0,0,0-.469H7.4a.234.234,0,0,0,0,.469Z"/><path class="c" d="M6.1,4.658H5.229a.234.234,0,0,0,0,.469H6.1a.234.234,0,0,0,0-.469Z"/><path class="c" d="M7.4,5.126h3.367a.234.234,0,0,0,0-.469H7.4a.234.234,0,0,0,0,.469Z"/><path class="c" d="M11.079,12.959V11.813a.406.406,0,0,0-.405-.405H5.327a.406.406,0,0,0-.405.405v1.146a.406.406,0,0,0,.405.405h5.347A.406.406,0,0,0,11.079,12.959ZM10.61,12.9H5.39V11.877h5.22Z"/><path class="c" d="M6.1,6H5.229a.234.234,0,0,0,0,.469H6.1A.234.234,0,0,0,6.1,6Z"/><path class="c" d="M7.4,6.472h3.367a.234.234,0,0,0,0-.469H7.4a.234.234,0,0,0,0,.469Z"/><path class="c" d="M6.1,7.348H5.229a.234.234,0,0,0,0,.469H6.1a.234.234,0,0,0,0-.469Z"/><path class="c" d="M7.4,7.817h3.367a.234.234,0,0,0,0-.469H7.4a.234.234,0,0,0,0,.469Z"/><path class="c" d="M6.223,14.119a.234.234,0,1,0,0,.469H9.777a.234.234,0,1,0,0-.469Z"/><path class="c" d="M15.766,9.01h-1l.6-4.074a.234.234,0,0,0-.464-.068L14.292,9.01H12.318V1.71l2.921.47a.06.06,0,0,1,.04.025.063.063,0,0,1,.01.049l-.247,1.669a.234.234,0,0,0,.2.266l.035,0a.234.234,0,0,0,.232-.2l.246-1.666a.53.53,0,0,0-.439-.608l-3-.482V.756a.531.531,0,0,0-.53-.53H7.7a.234.234,0,0,0,0,.469h4.091a.062.062,0,0,1,.062.062V9.01H10.606a.716.716,0,0,0-.668.463l-.233.622a.245.245,0,0,1-.229.159H6.523a.245.245,0,0,1-.229-.159l-.233-.622a.716.716,0,0,0-.668-.463H4.151V.756A.062.062,0,0,1,4.212.694H6.759a.234.234,0,0,0,0-.469H4.212a.531.531,0,0,0-.53.53v.479l-3,.482a.53.53,0,0,0-.44.6L1.235,9.01h-1A.234.234,0,0,0,0,9.244v4.329a2.2,2.2,0,0,0,2.2,2.2H3.216a.234.234,0,0,0,0-.469H2.2A1.734,1.734,0,0,1,.469,13.573V9.479H5.394a.245.245,0,0,1,.229.159l.233.622a.716.716,0,0,0,.668.463H9.477a.716.716,0,0,0,.668-.463l.233-.622a.245.245,0,0,1,.229-.159h4.925v4.095A1.734,1.734,0,0,1,13.8,15.306H4.154a.234.234,0,0,0,0,.469H13.8a2.2,2.2,0,0,0,2.2-2.2V9.244A.234.234,0,0,0,15.766,9.01ZM.71,2.25A.062.062,0,0,1,.761,2.18l2.921-.47v7.3H1.708Z"/></g></g></svg>