<svg xmlns="http://www.w3.org/2000/svg" xmlns:xlink="http://www.w3.org/1999/xlink" width="16" height="16" viewBox="0 0 16 16"><defs><style>.a,.c{fill:#1b2331;}.a{stroke:#707070;}.b{clip-path:url(#a);}</style><clipPath id="a"><rect class="a" width="16" height="16" transform="translate(20 287)"/></clipPath></defs><g class="b" transform="translate(-20 -287)"><g transform="translate(19.467 286.467)"><path class="c" d="M15.733,1.6h-.8V1.333a.8.8,0,1,0-1.6,0V1.6H11.2V1.333a.8.8,0,0,0-1.6,0V1.6H7.467V1.333a.8.8,0,1,0-1.6,0V1.6H3.733V1.333a.8.8,0,1,0-1.6,0V1.6h-.8a.8.8,0,0,0-.8.8V15.733a.8.8,0,0,0,.8.8h14.4a.8.8,0,0,0,.8-.8V2.4a.8.8,0,0,0-.8-.8Zm-1.867-.267a.267.267,0,1,1,.533,0V2.4a.267.267,0,1,1-.533,0Zm-3.733,0a.267.267,0,1,1,.533,0V2.4a.267.267,0,1,1-.533,0Zm-3.733,0a.267.267,0,1,1,.533,0V2.4a.267.267,0,1,1-.533,0Zm-3.733,0a.267.267,0,0,1,.533,0V2.4a.267.267,0,0,1-.533,0ZM1.067,2.4a.267.267,0,0,1,.267-.267h.8V2.4a.8.8,0,1,0,1.6,0V2.133H5.867V2.4a.8.8,0,0,0,1.6,0V2.133H9.6V2.4a.8.8,0,1,0,1.6,0V2.133h2.133V2.4a.8.8,0,0,0,1.6,0V2.133h.8A.267.267,0,0,1,16,2.4V4.267H1.067ZM16,15.733a.267.267,0,0,1-.267.267H1.333a.267.267,0,0,1-.267-.267V4.8H16Z"/><path class="c" d="M3.467,14.4H13.6a1.068,1.068,0,0,0,1.067-1.067V7.467A1.068,1.068,0,0,0,13.6,6.4H3.467A1.068,1.068,0,0,0,2.4,7.467v5.867A1.068,1.068,0,0,0,3.467,14.4ZM2.933,7.467a.534.534,0,0,1,.533-.533H13.6a.534.534,0,0,1,.533.533v5.867a.534.534,0,0,1-.533.533H3.467a.534.534,0,0,1-.533-.533Z"/><path class="c" d="M4,9.867H6.4A.267.267,0,0,0,6.667,9.6V8A.267.267,0,0,0,6.4,7.733H4A.267.267,0,0,0,3.733,8V9.6A.267.267,0,0,0,4,9.867Zm.267-1.6H6.133V9.333H4.267Z"/><path class="c" d="M10.667,12.533h2.667v.533H10.667Z"/><path class="c" d="M11.733,10.933h1.6v.533h-1.6Z"/><path class="c" d="M9.067,10.933h1.6v.533h-1.6Z"/><path class="c" d="M6.4,10.933H8v.533H6.4Z"/><path class="c" d="M3.733,10.933h1.6v.533h-1.6Z"/><path class="c" d="M3.733,12.533h1.6v.533h-1.6Z"/><path class="c" d="M5.867,12.533h1.6v.533h-1.6Z"/></g></g></svg>