<svg xmlns="http://www.w3.org/2000/svg" xmlns:xlink="http://www.w3.org/1999/xlink" width="16" height="16" viewBox="0 0 16 16"><defs><style>.a,.c{fill:#1b2331;}.a{stroke:#707070;}.b{clip-path:url(#a);}</style><clipPath id="a"><rect class="a" width="16" height="16" transform="translate(20 287)"/></clipPath></defs><g class="b" transform="translate(-20 -287)"><g transform="translate(20 287)"><path class="c" d="M9.034,7.858H10.15a.458.458,0,0,0,.458-.458V6.284a.458.458,0,0,0-.458-.458H9.034a.458.458,0,0,0-.458.458V7.4A.458.458,0,0,0,9.034,7.858ZM9.046,6.3h1.094V7.389H9.046Zm2.716-.011V7.4a.458.458,0,0,0,.458.458h1.116a.458.458,0,0,0,.458-.458V6.284a.458.458,0,0,0-.458-.458H12.219A.458.458,0,0,0,11.762,6.284Zm.469.011h1.094V7.389H12.23Zm1.1,2.5H12.219a.458.458,0,0,0-.458.458v1.116a.458.458,0,0,0,.458.458h1.116a.458.458,0,0,0,.458-.458V9.253A.458.458,0,0,0,13.335,8.8Zm-.011,1.563H12.23V9.264h1.094Zm.7-9.287h-1V.713A.714.714,0,0,0,12.311,0H12.2a.714.714,0,0,0-.713.713v.358H4.509V.713A.714.714,0,0,0,3.8,0H3.689a.714.714,0,0,0-.713.713v.358h-1A1.175,1.175,0,0,0,.8,2.244V14.828A1.173,1.173,0,0,0,1.973,16H14.027A1.173,1.173,0,0,0,15.2,14.828V2.245a1.175,1.175,0,0,0-1.174-1.173ZM11.959.713A.244.244,0,0,1,12.2.469h.108a.244.244,0,0,1,.244.244v.358h-.6Zm-8.514,0A.244.244,0,0,1,3.689.469H3.8a.244.244,0,0,1,.244.244v.358h-.6V.713ZM14.73,14.828a.7.7,0,0,1-.7.7H1.973a.7.7,0,0,1-.7-.7h0a1.167,1.167,0,0,0,.7.236h9.5a1.166,1.166,0,0,0,.83-.344l2.424-2.424ZM12.067,14.3a1,1,0,0,0,.028-.236V12.494a.536.536,0,0,1,.535-.535H14.2a1,1,0,0,0,.236-.028ZM14.73,4.42h-2a.234.234,0,1,0,0,.469h2v6.066a.536.536,0,0,1-.535.535H12.631a1,1,0,0,0-1,1v1.564a.536.536,0,0,1-.535.535H1.974a.705.705,0,0,1-.7-.7v-9H11.788a.234.234,0,0,0,0-.469H1.27V2.244a.705.705,0,0,1,.7-.7h1v.689a.714.714,0,0,0,.713.713.234.234,0,0,0,0-.469.244.244,0,0,1-.244-.244V1.54h8.046v.689a.714.714,0,0,0,.713.713.234.234,0,0,0,0-.469.244.244,0,0,1-.244-.244V1.54h2.066a.705.705,0,0,1,.7.7ZM2.665,10.757H3.781a.458.458,0,0,0,.458-.458V9.183a.458.458,0,0,0-.458-.458H2.665a.458.458,0,0,0-.458.458V10.3a.458.458,0,0,0,.458.458Zm.011-1.562H3.77v1.094H2.676Zm4.29-.469H5.85a.458.458,0,0,0-.458.458V10.3a.458.458,0,0,0,.458.458H6.966a.458.458,0,0,0,.458-.458V9.183A.458.458,0,0,0,6.966,8.726Zm-.011,1.563H5.861V9.195H6.954Zm3.2,1.337H9.034a.458.458,0,0,0-.458.458V13.2a.458.458,0,0,0,.458.458H10.15a.458.458,0,0,0,.458-.458V12.083A.458.458,0,0,0,10.15,11.625Zm-.011,1.563H9.046V12.094h1.094Zm.383-4.137a.234.234,0,0,0-.33.033l-.949,1.16-.361-.361a.234.234,0,0,0-.331.331L9,10.66a.36.36,0,0,0,.254.105H9.27a.36.36,0,0,0,.26-.131L10.555,9.38a.234.234,0,0,0-.033-.33ZM4.17,11.694a.234.234,0,0,0-.331,0l-.616.616-.616-.616a.234.234,0,0,0-.331.331l.616.616-.616.616a.234.234,0,1,0,.331.331l.616-.616.616.616a.234.234,0,1,0,.331-.331l-.615-.616.616-.616a.234.234,0,0,0,0-.331Zm2.8-5.867H5.85a.458.458,0,0,0-.458.458V7.4a.458.458,0,0,0,.458.458H6.966A.458.458,0,0,0,7.423,7.4V6.284A.458.458,0,0,0,6.966,5.827ZM6.954,7.389H5.861V6.3H6.954Zm.011,4.236H5.85a.458.458,0,0,0-.458.458V12.4a.234.234,0,1,0,.469,0v-.311H6.954v1.094H5.86a.234.234,0,0,0-.469.011.458.458,0,0,0,.458.458H6.966a.458.458,0,0,0,.458-.458V12.083A.458.458,0,0,0,6.966,11.625Zm-4.3-3.767H3.781A.458.458,0,0,0,4.238,7.4V6.284a.458.458,0,0,0-.458-.458H2.665a.458.458,0,0,0-.458.458V7.4a.458.458,0,0,0,.458.458ZM2.676,6.3H3.77V7.389H2.676Z"/></g></g></svg>