<svg xmlns="http://www.w3.org/2000/svg" width="18.164" height="21.796" viewBox="0 0 18.164 21.796"><defs><style>.a{fill:#1b2331;}</style></defs><g transform="translate(-42.657)"><g transform="translate(42.657 3.179)"><g transform="translate(0)"><path class="a" d="M60.757,89.872l-1.56-2.6A7.726,7.726,0,0,1,58.1,83.3V81.024a6.357,6.357,0,0,0-12.714,0V83.3a7.726,7.726,0,0,1-1.1,3.972l-1.56,2.6a.454.454,0,0,0,.39.688H60.367a.454.454,0,0,0,.39-.688Zm-16.843-.221,1.147-1.912A8.626,8.626,0,0,0,46.29,83.3V81.024a5.449,5.449,0,1,1,10.9,0V83.3a8.634,8.634,0,0,0,1.229,4.439l1.148,1.912H43.914Z" transform="translate(-42.657 -74.667)"/></g></g><g transform="translate(49.923)"><g transform="translate(0)"><path class="a" d="M215.149,0a1.818,1.818,0,0,0-1.816,1.816V3.633a.454.454,0,0,0,.908,0V1.816a.908.908,0,0,1,1.816,0V3.633a.454.454,0,0,0,.908,0V1.816A1.818,1.818,0,0,0,215.149,0Z" transform="translate(-213.333)"/></g></g><g transform="translate(49.469 18.164)"><g transform="translate(0)"><path class="a" d="M206.9,426.9a.455.455,0,1,0-.785.46,1.362,1.362,0,1,1-2.359,0,.455.455,0,1,0-.785-.46,2.271,2.271,0,1,0,3.929,0Z" transform="translate(-202.666 -426.68)"/></g></g></g></svg>