<svg xmlns="http://www.w3.org/2000/svg" xmlns:xlink="http://www.w3.org/1999/xlink" width="16" height="16" viewBox="0 0 16 16"><defs><style>.a,.c{fill:#1b2331;}.a{stroke:#707070;}.b{clip-path:url(#a);}</style><clipPath id="a"><rect class="a" width="16" height="16" transform="translate(20 287)"/></clipPath></defs><g class="b" transform="translate(-20 -287)"><g transform="translate(20 287.166)"><path class="c" d="M13,8.667H7.667a.333.333,0,1,1,0-.667H13a.333.333,0,1,1,0,.667Z"/><path class="c" d="M15.667,12h-8a.333.333,0,1,1,0-.667h8a.333.333,0,1,1,0,.667Z"/><path class="c" d="M13,15.333H7.667a.333.333,0,1,1,0-.667H13a.333.333,0,1,1,0,.667Z"/><path class="c" d="M15,5.333H8.333a1,1,0,0,1-1-1v-2a1,1,0,0,1,1-1H15a1,1,0,0,1,1,1v2A1,1,0,0,1,15,5.333ZM8.333,2A.333.333,0,0,0,8,2.333v2a.333.333,0,0,0,.333.333H15a.333.333,0,0,0,.333-.333v-2A.333.333,0,0,0,15,2Z"/><path class="c" d="M5.667,3.667H.333A.333.333,0,0,1,.333,3H5.667a.333.333,0,0,1,0,.667Z"/><path class="c" d="M3,6.333a.333.333,0,0,1-.236-.569L5.2,3.333,2.764.9A.333.333,0,1,1,3.235.431L5.9,3.1a.334.334,0,0,1,0,.471L3.235,6.236a.332.332,0,0,1-.235.1Z"/></g></g></svg>